<?xml version="1.0" encoding="utf-8"?>
<!-- Generator: Adobe Illustrator 16.0.0, SVG Export Plug-In . SVG Version: 6.00 Build 0)  -->
<!DOCTYPE svg PUBLIC "-//W3C//DTD SVG 1.1//EN" "http://www.w3.org/Graphics/SVG/1.1/DTD/svg11.dtd">
<svg version="1.1" id="ICON" xmlns="http://www.w3.org/2000/svg" xmlns:xlink="http://www.w3.org/1999/xlink" x="0px" y="0px"
	 width="512px" height="512px" viewBox="0 0 512 512" enable-background="new 0 0 512 512" xml:space="preserve">
<title></title>
<path fill="#FFFFFF" d="M88.47,63.59h335c13.808,0,25,11.193,25,25v335c0,13.808-11.192,25-25,25h-335c-13.807,0-25-11.192-25-25
	v-335C63.47,74.783,74.663,63.59,88.47,63.59z"/>
<path fill="#9B9B9B" d="M128.12,137.16h255.7c9.747,0,17.649,7.902,17.649,17.65v0.01c0,9.748-7.902,17.65-17.649,17.65h-255.7
	c-9.748,0-17.65-7.902-17.65-17.65v-0.01C110.47,145.062,118.372,137.16,128.12,137.16z"/>
<path fill="#9B9B9B" d="M128.12,240.18h255.7c9.747,0,17.649,7.902,17.649,17.65v0.01c0,9.748-7.902,17.65-17.649,17.65h-255.7
	c-9.748,0-17.65-7.902-17.65-17.65v-0.01C110.47,248.082,118.372,240.18,128.12,240.18z"/>
<path fill="#9B9B9B" d="M128.12,343.21h255.7c9.747,0,17.649,7.902,17.649,17.649v0.011c0,9.747-7.902,17.649-17.649,17.649h-255.7
	c-9.748,0-17.65-7.902-17.65-17.649v-0.011C110.47,351.112,118.372,343.21,128.12,343.21z"/>
<path d="M191.47,123.99L191.47,123.99c16.9,0,30.6,13.7,30.6,30.6l0,0c0,16.9-13.7,30.6-30.6,30.6l0,0c-16.9,0-30.6-13.7-30.6-30.6
	l0,0C160.87,137.69,174.57,123.99,191.47,123.99z"/>
<path d="M319.47,225.99L319.47,225.99c16.9,0,30.601,13.7,30.601,30.6l0,0c0,16.9-13.7,30.6-30.601,30.6l0,0
	c-16.899,0-30.6-13.699-30.6-30.6l0,0C288.87,239.69,302.57,225.99,319.47,225.99z"/>
<path d="M191.47,329.99L191.47,329.99c16.9,0,30.6,13.699,30.6,30.6l0,0c0,16.9-13.7,30.6-30.6,30.6l0,0
	c-16.9,0-30.6-13.699-30.6-30.6l0,0C160.87,343.689,174.57,329.99,191.47,329.99z"/>
</svg>
