<?xml version="1.0" encoding="utf-8"?>
<!-- Generator: Adobe Illustrator 16.0.0, SVG Export Plug-In . SVG Version: 6.00 Build 0)  -->
<!DOCTYPE svg PUBLIC "-//W3C//DTD SVG 1.1//EN" "http://www.w3.org/Graphics/SVG/1.1/DTD/svg11.dtd">
<svg version="1.1" id="Layer_1" xmlns="http://www.w3.org/2000/svg" xmlns:xlink="http://www.w3.org/1999/xlink" x="0px" y="0px"
	 width="512px" height="512px" viewBox="0 0 512 512" enable-background="new 0 0 512 512" xml:space="preserve">
<title></title>
<path d="M223.04,305.2c-7.313,2.829-15.125,4.136-22.96,3.84c-30.88,0-46.8-19.2-46.8-44.64c0-30.48,21.76-47.44,48.72-47.44
	c7.535-0.257,15.038,1.106,22,4l-4.08,16c-5.376-2.218-11.144-3.333-16.96-3.28c-14.814-0.958-27.601,10.274-28.56,25.088
	c-0.095,1.477-0.069,2.959,0.08,4.432c-1.417,14.645,9.307,27.665,23.952,29.081c1.559,0.15,3.127,0.164,4.688,0.039
	c5.723,0.004,11.405-0.971,16.8-2.881L223.04,305.2z"/>
<path d="M314.08,262.16c0,29.279-17.76,47.04-43.84,47.04s-42-20-42-45.44c0-26.8,17.12-46.8,43.439-46.8
	C298,216.96,314.08,237.52,314.08,262.16z M249.6,263.359c0,17.521,8,29.841,21.759,29.841c13.761,0,21.44-13.2,21.44-30.4
	c0-16-8-29.84-21.6-29.84C257.6,232.96,249.6,246,249.6,263.359L249.6,263.359z"/>
<path d="M324.24,325.04v-8.8l8-7.2c13.52-12.08,20.08-19.04,20.24-26.24c0-5.04-3.04-9.04-10.16-9.04
	c-4.838,0.234-9.47,2.031-13.2,5.12l-4.08-10.319c5.898-4.225,12.985-6.465,20.24-6.4c10.515-1.371,20.15,6.041,21.521,16.557
	c0.121,0.929,0.174,1.865,0.158,2.803c0,10.32-7.52,18.641-16.4,26.561l-5.68,4.72l0,0H368v11.841L324.24,325.04z"/>
</svg>
