<?xml version="1.0" encoding="utf-8"?>
<!-- Generator: Adobe Illustrator 16.0.0, SVG Export Plug-In . SVG Version: 6.00 Build 0)  -->
<!DOCTYPE svg PUBLIC "-//W3C//DTD SVG 1.1//EN" "http://www.w3.org/Graphics/SVG/1.1/DTD/svg11.dtd">
<svg version="1.1" id="Layer_1" xmlns="http://www.w3.org/2000/svg" xmlns:xlink="http://www.w3.org/1999/xlink" x="0px" y="0px"
	 width="512px" height="512px" viewBox="0 0 512 512" enable-background="new 0 0 512 512" xml:space="preserve">
<title></title>
<path fill="#529FBA" d="M404,306.88c0,81.738-66.262,148-148,148c-81.738,0-148-66.262-148-148c0-129.521,120-249.76,148-249.76
	S404,177.359,404,306.88z"/>
<path fill="#FFFFFF" d="M236.1,252.5c0,26.561-16.8,40.398-35.2,40.398s-34.56-14.479-34.56-38.318c0-23.841,13.84-40,35.52-40
	C223.54,214.58,236.1,230.819,236.1,252.5z M188.1,253.859c0,13.28,4.48,22.879,13.12,22.879c8.64,0,12.48-8.559,12.48-22.879
	c0-12.881-3.52-22.881-12.72-22.881s-12.56,10.24-12.56,22.881H188.1L188.1,253.859z M345.699,305.299
	c0,26.561-16.8,40.4-35.199,40.4c-18.398,0-34.398-14.48-34.561-38.32s13.84-40,35.521-40
	C333.14,267.379,345.699,283.939,345.699,305.299z M298.26,306.659c0,13.28,4.318,22.88,12.88,22.88
	c8.561,0,12.479-8.561,12.479-22.88c0-12.88-3.359-22.88-12.479-22.88s-12.562,10.16-12.562,22.881L298.26,306.659z"/>
<rect x="249.264" y="223.658" transform="matrix(0.9156 0.402 -0.402 0.9156 134.2175 -79.2825)" fill="#FFFFFF" width="13.5" height="112.997"/>
</svg>
