<?xml version="1.0" ?><svg fill="none" height="24" viewBox="0 0 24 24" width="24" xmlns="http://www.w3.org/2000/svg"><path clip-rule="evenodd" d="M12 3C12.5523 3 13 3.44772 13 4V15.1707C14.1652 15.5825 15 16.6938 15 18C15 19.6569 13.6569 21 12 21C10.3431 21 9 19.6569 9 18C9 16.6938 9.83481 15.5825 11 15.1707L11 4C11 3.44772 11.4477 3 12 3ZM18 3C18.5523 3 19 3.44772 19 4V9.17071C20.1652 9.58254 21 10.6938 21 12C21 13.3062 20.1652 14.4175 19 14.8293V20C19 20.5523 18.5523 21 18 21C17.4477 21 17 20.5523 17 20V14.8293C15.8348 14.4175 15 13.3062 15 12C15 10.6938 15.8348 9.58254 17 9.17071V4C17 3.44772 17.4477 3 18 3ZM3 6C3 4.34315 4.34315 3 6 3C7.65685 3 9 4.34315 9 6C9 7.30622 8.16519 8.41746 7 8.82929L7 20C7 20.5523 6.55228 21 6 21C5.44771 21 5 20.5523 5 20L5 8.82929C3.83481 8.41746 3 7.30622 3 6ZM6 5C5.44772 5 5 5.44772 5 6C5 6.55228 5.44772 7 6 7C6.55228 7 7 6.55228 7 6C7 5.44772 6.55228 5 6 5ZM18 11C17.4477 11 17 11.4477 17 12C17 12.5523 17.4477 13 18 13C18.5523 13 19 12.5523 19 12C19 11.4477 18.5523 11 18 11ZM12 17C11.4477 17 11 17.4477 11 18C11 18.5523 11.4477 19 12 19C12.5523 19 13 18.5523 13 18C13 17.4477 12.5523 17 12 17Z" fill="black" fill-rule="evenodd"/></svg>