<?xml version="1.0" encoding="utf-8"?>
<!-- Generator: Adobe Illustrator 16.0.0, SVG Export Plug-In . SVG Version: 6.00 Build 0)  -->
<!DOCTYPE svg PUBLIC "-//W3C//DTD SVG 1.1//EN" "http://www.w3.org/Graphics/SVG/1.1/DTD/svg11.dtd">
<svg version="1.1" id="Capa_1" xmlns="http://www.w3.org/2000/svg" xmlns:xlink="http://www.w3.org/1999/xlink" x="0px" y="0px"
	 width="1792px" height="1792px" viewBox="0 0 1792 1792" enable-background="new 0 0 1792 1792" xml:space="preserve">
<path fill="#3BA5ED" d="M1683,808l-742,741c-12.667,12.667-27.667,19-45,19s-32.333-6.333-45-19L109,808
	c-12.667-12.667-19-27.833-19-45.5s6.333-32.833,19-45.5l166-165c12.667-12.667,27.667-19,45-19c17.333,0,32.333,6.333,45,19
	l531,531l531-531c12.667-12.667,27.667-19,45-19s32.333,6.333,45,19l166,165c12.667,12.667,19,27.833,19,45.5
	S1695.667,795.333,1683,808z"/>
</svg>
