<?xml version="1.0" encoding="utf-8"?>
<!-- Generator: Adobe Illustrator 16.0.0, SVG Export Plug-In . SVG Version: 6.00 Build 0)  -->
<!DOCTYPE svg PUBLIC "-//W3C//DTD SVG 1.1//EN" "http://www.w3.org/Graphics/SVG/1.1/DTD/svg11.dtd">
<svg version="1.1" id="Capa_1" xmlns="http://www.w3.org/2000/svg" xmlns:xlink="http://www.w3.org/1999/xlink" x="0px" y="0px"
	 width="176.5px" height="512px" viewBox="0 0 176.5 512" enable-background="new 0 0 176.5 512" xml:space="preserve">
<title></title>
<g id="Icons">
	<path fill="#FFECD1" d="M346.4,136.88c0.96-0.08,2-0.24,2.96-0.24c-0.96,0.08-1.92,0.16-2.88,0.32L346.4,136.88z"/>
	<path fill="#B4D3E0" d="M128.32,460.96c-37.951,22.563-87.008,10.088-109.57-27.863c-22.563-37.952-10.088-87.008,27.863-109.571
		c0.46-0.272,0.922-0.541,1.387-0.805V64c-0.049-22.043,17.78-39.952,39.823-40.001c5.747-0.013,11.429,1.215,16.657,3.601
		c-1.106,26.291-3.939,52.48-8.48,78.4v-2c0-4.418-3.582-8-8-8s-8,3.582-8,8v87.68c-9.44,50.96-16.88,102.64-11.76,156.72
		C51.231,356.3,40.253,373.248,40,392c0,26.51,21.49,48,48,48c3.634,0.014,7.258-0.389,10.8-1.2
		C106.389,448.787,116.611,456.462,128.32,460.96z"/>
	<path fill="#CCDEE6" d="M168,392c0.012-28.584-15.24-54.998-40-69.279V64c0-10.612-4.199-20.793-11.68-28.32
		c-3.437-3.363-7.442-6.088-11.832-8.048C100.8,142.528,50.24,252.688,72,376c6.288,31.432,22.536,72.616,56.352,84.984
		C152.889,446.67,167.982,420.407,168,392z"/>
	<path fill="#A2ADB3" d="M72,312c0,4.418-3.582,8-8,8H48v-16h16C68.418,304,72,307.582,72,312z"/>
	<path fill="#A2ADB3" d="M72,280c0,4.418-3.582,8-8,8H48v-16h16C68.418,272,72,275.582,72,280z"/>
	<path fill="#A2ADB3" d="M72,248c0,4.418-3.582,8-8,8H48v-16h16C68.418,240,72,243.582,72,248z"/>
	<path fill="#A2ADB3" d="M72,216c0,4.418-3.582,8-8,8H48v-16h16C68.418,208,72,211.582,72,216z"/>
	<path fill="#A2ADB3" d="M72,184c0,4.418-3.582,8-8,8H48v-16h16C68.418,176,72,179.582,72,184z"/>
	<path fill="#A2ADB3" d="M72,152c0,4.418-3.582,8-8,8H48v-16h16C68.418,144,72,147.582,72,152z"/>
	<path fill="#A2ADB3" d="M72,120c0,4.418-3.582,8-8,8H48v-16h16C68.418,112,72,115.582,72,120z"/>
	<path fill="#A2ADB3" d="M72,88c0,4.418-3.582,8-8,8H48V80h16C68.418,80,72,83.582,72,88z"/>
	<rect x="80" y="107" fill="#FFFFFF" width="15.417" height="239.167"/>
	<circle fill="#FF8680" cx="88.25" cy="393.04" r="48.536"/>
</g>
</svg>
