<?xml version="1.0" ?><svg viewBox="0 0 64 64" xmlns="http://www.w3.org/2000/svg"><title/><g id="Filter"><path d="M52.8818,23.5283A1.0007,1.0007,0,0,0,52,23H12a1,1,0,0,0-.832,1.5547L23,42.3027V61a1,1,0,0,0,1.3511.9365l16-6A1.0005,1.0005,0,0,0,41,55V42.3027l11.832-17.748A1,1,0,0,0,52.8818,23.5283Z" style="fill:#318fb5"/><rect height="7" rx="2" style="fill:#b0cac7" width="48" x="8" y="18"/><path d="M54,18H10a2.0023,2.0023,0,0,0-2,2v3a2.0023,2.0023,0,0,0,2,2h1.4648L23,42.3027V61a1,1,0,0,0,1.3511.9365l16-6A1.0005,1.0005,0,0,0,41,55V42.3027L52.5352,25H54a2.0023,2.0023,0,0,0,2-2V20A2.0023,2.0023,0,0,0,54,18ZM39.168,41.4453A1.0008,1.0008,0,0,0,39,42V54.3066l-14,5.25V42a1.0008,1.0008,0,0,0-.168-.5547L13.8687,25H50.1313ZM52,23H10V20H54l.0015,3Z" style="fill:#096293"/><path d="M32,15a1,1,0,0,0,1-1V3a1,1,0,0,0-2,0V14A1,1,0,0,0,32,15Z" style="fill:#096293"/><path d="M18,15a1,1,0,0,0,1-1V6a1,1,0,0,0-2,0v8A1,1,0,0,0,18,15Z" style="fill:#096293"/><path d="M46,15a1,1,0,0,0,1-1V8a1,1,0,0,0-2,0v6A1,1,0,0,0,46,15Z" style="fill:#096293"/></g></svg>